<?xml version="1.0" encoding="utf-8"?>
<!-- Generator: Adobe Illustrator 27.5.0, SVG Export Plug-In . SVG Version: 6.00 Build 0)  -->
<svg version="1.1" id="Layer_1" xmlns="http://www.w3.org/2000/svg" xmlns:xlink="http://www.w3.org/1999/xlink" x="0px" y="0px"
	 viewBox="0 0 137 71.4" style="enable-background:new 0 0 137 71.4;" xml:space="preserve">
<style type="text/css">
	.st0{fill:#FFFFFF;}
	.st1{enable-background:new    ;}
</style>
<path class="st0" d="M0,28.8l14.6-7.1c1-0.5,2.3-0.5,3.3,0l14.6,7.1V18.1L17.9,11c-1-0.5-2.3-0.5-3.3,0L0,18.1V28.8"/>
<path class="st0" d="M0,50.1L14.6,43c1-0.5,2.3-0.5,3.3,0l14.6,7.1V39.4l-14.6-7.1c-1-0.5-2.3-0.5-3.3,0L0,39.4V50.1"/>
<path class="st0" d="M0,71.4l14.6-7.1c1-0.5,2.3-0.5,3.3,0l14.6,7.1V60.8l-14.6-7.1c-1-0.5-2.3-0.5-3.3,0L0,60.8V71.4"/>
<path class="st0" d="M32.5,39.4l14.6-7.1c1-0.5,2.3-0.5,3.3,0L65,39.4V28.8l-14.6-7.1c-1-0.5-2.3-0.5-3.3,0l-14.6,7.1V39.4"/>
<path class="st0" d="M32.5,60.8l14.6-7.1c1-0.5,2.3-0.5,3.3,0L65,60.8V50.1L50.4,43c-1-0.5-2.3-0.5-3.3,0l-14.6,7.1V60.8"/>
<path class="st0" d="M32.5,18.1L47.1,11c1-0.5,2.3-0.5,3.3,0L65,18.1V7.4l-14.6-7c-1-0.5-2.3-0.5-3.3,0l-14.6,7V18.1"/>
<g class="st1">
	<path class="st0" d="M84.5,19.2l-0.3,1.2c-0.8,0.4-1.7,0.6-2.8,0.6c-0.8,0-1.5-0.1-2.1-0.3c-0.7-0.2-1.2-0.6-1.7-1
		s-0.9-0.9-1.1-1.5c-0.3-0.6-0.4-1.3-0.4-2c0-0.9,0.1-1.7,0.4-2.4c0.3-0.7,0.7-1.3,1.2-1.7c0.5-0.5,1.1-0.8,1.8-1
		c0.7-0.2,1.4-0.3,2.2-0.3c0.5,0,1,0.1,1.5,0.2c0.5,0.1,1,0.3,1.4,0.5l-0.2,0.8l-0.2,0.7H84c-0.2-0.3-0.4-0.5-0.6-0.7
		s-0.5-0.4-0.8-0.5c-0.3-0.1-0.6-0.2-0.9-0.2c-0.6,0-1.1,0.1-1.5,0.4s-0.8,0.6-1.1,1c-0.1,0.2-0.3,0.4-0.4,0.7
		c-0.1,0.2-0.2,0.5-0.2,0.7s-0.1,0.5-0.1,0.8c0,0.3,0,0.5,0,0.8c0,0.8,0.1,1.5,0.4,2.2c0.3,0.6,0.7,1.1,1.2,1.5
		c0.5,0.3,1.1,0.5,1.9,0.5c0.4,0,0.9-0.1,1.4-0.3s0.9-0.5,1.2-0.8L84.5,19.2z"/>
	<path class="st0" d="M91.7,11l-0.1,0.6c0,0.1,0,0.3,0.1,0.6c-1-0.1-2.1-0.2-3.3-0.2v3.1h1.5c0.6,0,1.2,0,1.8-0.1
		c0,0.3-0.1,0.5-0.1,0.6c0,0.1,0,0.3,0.1,0.6c-0.3,0-0.6-0.1-0.9-0.1c-0.3,0-0.6,0-0.9,0h-1.5v3.7c0.7,0,1.3,0,1.8,0
		c0.5,0,1-0.1,1.6-0.2l-0.1,0.6c0,0.1,0,0.3,0.1,0.6h-5.5V11H91.7z"/>
	<path class="st0" d="M93.5,11h1.4l1.4,1.5l1.6,1.7l1.7,1.8c0.1,0.1,0.3,0.3,0.5,0.5c0.3,0.3,0.5,0.5,0.5,0.6
		c0.2,0.2,0.4,0.4,0.5,0.6V11c0.2,0,0.4,0,0.6,0c0.2,0,0.4,0,0.6,0v9.9l-1.2,0l-1.8-2l-1.6-1.7c-0.2-0.2-0.5-0.5-0.7-0.8
		c-0.2-0.2-0.5-0.5-0.8-0.8l-1.6-1.6v7l-0.3,0l-0.3,0l-0.3,0l-0.3,0V11z"/>
	<path class="st0" d="M108.6,20.8l-1.1-0.1c-0.2,0-0.3,0-0.5,0c-0.2,0-0.4,0-0.5,0V12c-0.8,0-1.7,0.1-2.7,0.2c0-0.3,0.1-0.5,0.1-0.6
		c0-0.1,0-0.3-0.1-0.6h7.4c0,0.3-0.1,0.5-0.1,0.6c0,0.1,0,0.3,0.1,0.6c-1.2-0.1-2-0.2-2.6-0.2V20.8z"/>
	<path class="st0" d="M112.6,11h3.1c1.1,0,1.9,0.1,2.3,0.3c0.8,0.4,1.2,1.1,1.2,2.1c0,0.7-0.2,1.3-0.6,1.7c-0.4,0.4-0.9,0.7-1.6,0.9
		l0.7,1.2l1,1.5l0.9,1.3l0.6,0.9l-1.3-0.1c-0.2,0-0.4,0-0.7,0c-0.3,0-0.5,0-0.6,0l-1.7-3l-0.5-0.8l-0.5-0.8h-0.1v4.6l-1.1-0.1
		c-0.2,0-0.3,0-0.5,0c-0.2,0-0.4,0-0.5,0V11z M114.7,15.6l0.4,0c1.3,0,1.9-0.7,1.9-2.1c0-0.1,0-0.2,0-0.3c0-0.1,0-0.3-0.1-0.4
		c-0.1-0.4-0.3-0.7-0.6-0.9s-0.7-0.2-1.2-0.2h-0.4V15.6z"/>
	<path class="st0" d="M122.8,17.8l-0.4,1l-0.4,1.1l-0.3,0.9l-0.3,0l-0.3,0l-0.3,0l-0.4,0l4.1-10c0.2,0,0.4,0,0.5,0
		c0.2,0,0.4,0,0.5,0l4,10l-1.2-0.1c-0.2,0-0.4,0-0.6,0c-0.2,0-0.4,0-0.6,0c-0.4-1.4-0.8-2.4-1-3H122.8z M125.9,16.9l-1.3-3.3
		l-1.4,3.3H125.9z"/>
	<path class="st0" d="M133.2,19.7c0.2,0,0.4,0,0.8,0s0.6,0,0.8,0c0.2,0,0.5,0,0.8,0c0.3,0,0.6-0.1,0.9-0.1l-0.1,0.6
		c0,0.1,0,0.3,0.1,0.6H131V11c0.2,0,0.4,0,0.6,0c0.2,0,0.3,0,0.5,0c0.2,0,0.3,0,0.5,0c0.2,0,0.4,0,0.5,0V19.7z"/>
</g>
<g class="st1">
	<path class="st0" d="M78.7,38.1l-1.1-0.1c-0.2,0-0.3,0-0.5,0s-0.4,0-0.5,0v-9.9h3.5c1,0,1.8,0.2,2.3,0.6c0.5,0.4,0.8,1,0.8,1.8
		c0,0.6-0.1,1.1-0.3,1.5c-0.2,0.4-0.5,0.7-0.9,1c-0.4,0.2-0.9,0.4-1.4,0.5c-0.3,0-0.6,0.1-0.9,0.1c-0.3,0-0.6,0-1,0V38.1z M78.7,33
		c0.2,0,0.4,0,0.5,0s0.3,0,0.4-0.1c0.4-0.1,0.8-0.4,1-0.7c0.2-0.4,0.3-0.8,0.3-1.2c0-0.6-0.1-1-0.4-1.4c-0.3-0.4-0.6-0.5-1-0.5h-0.9
		V33z"/>
	<path class="st0" d="M86.1,35.1l-0.4,1l-0.4,1.1l-0.3,0.9l-0.3,0l-0.3,0l-0.3,0l-0.4,0l4.1-10c0.2,0,0.4,0,0.5,0c0.2,0,0.4,0,0.5,0
		l4,10l-1.2-0.1c-0.2,0-0.4,0-0.6,0s-0.4,0-0.6,0c-0.4-1.4-0.8-2.4-1-3H86.1z M89.1,34.2l-1.3-3.3l-1.4,3.3H89.1z"/>
	<path class="st0" d="M94.2,28.3h3.1c1.1,0,1.9,0.1,2.3,0.3c0.8,0.4,1.2,1.1,1.2,2.1c0,0.7-0.2,1.3-0.6,1.7
		c-0.4,0.4-0.9,0.7-1.6,0.9l0.7,1.2l1,1.5l0.9,1.3l0.6,0.9l-1.3-0.1c-0.2,0-0.4,0-0.7,0c-0.3,0-0.5,0-0.6,0l-1.7-3l-0.5-0.8
		l-0.5-0.8h-0.1v4.6l-1.1-0.1c-0.2,0-0.3,0-0.5,0s-0.4,0-0.5,0V28.3z M96.3,32.9l0.4,0c1.3,0,1.9-0.7,1.9-2.1c0-0.1,0-0.2,0-0.3
		c0-0.1,0-0.3-0.1-0.4c-0.1-0.4-0.3-0.7-0.6-0.9S97.3,29,96.8,29h-0.4V32.9z"/>
	<path class="st0" d="M102.9,28.3c0.2,0,0.4,0,0.6,0s0.3,0,0.5,0c0.2,0,0.3,0,0.5,0c0.2,0,0.4,0,0.5,0v4.5c0.7-0.8,1.4-1.6,2-2.3
		c0.6-0.8,1.2-1.5,1.8-2.2c0.4,0,0.7,0.1,0.8,0.1c0.1,0,0.3,0,0.8-0.1v0.1l-2.4,2.5l-0.8,0.8l-0.6,0.7l3.9,5.6v0.2l-1.1-0.1
		c-0.2,0-0.3,0-0.5,0s-0.4,0-0.5,0l-3.3-4.6v4.6l-1.1-0.1c-0.2,0-0.3,0-0.5,0s-0.4,0-0.5,0V28.3z"/>
</g>
<g class="st1">
	<path class="st0" d="M80.6,55.3l-1.1-0.1c-0.2,0-0.3,0-0.5,0c-0.2,0-0.4,0-0.5,0v-8.8c-0.8,0-1.7,0.1-2.7,0.2
		c0-0.3,0.1-0.5,0.1-0.6c0-0.1,0-0.3-0.1-0.6h7.4c0,0.3-0.1,0.5-0.1,0.6c0,0.1,0,0.3,0.1,0.6c-1.2-0.1-2-0.2-2.6-0.2V55.3z"/>
	<path class="st0" d="M89.3,55.5c-0.8,0-1.5-0.1-2.2-0.3c-0.7-0.2-1.2-0.6-1.7-1s-0.8-1-1.1-1.6c-0.3-0.6-0.4-1.4-0.4-2.2
		c0-1,0.2-1.8,0.7-2.6c0.5-0.8,1.1-1.4,2-1.9c0.9-0.5,1.9-0.7,3-0.7c1,0,1.8,0.2,2.5,0.5s1.2,0.7,1.7,1.2c0.4,0.5,0.7,1,0.9,1.6
		c0.1,0.3,0.2,0.6,0.2,0.9c0,0.3,0.1,0.6,0.1,0.9c0,0.7-0.1,1.4-0.4,2C94.3,53,94,53.5,93.5,54c-0.5,0.5-1.1,0.9-1.8,1.1
		C91,55.4,90.2,55.5,89.3,55.5z M86.4,50.8c0,0.7,0.1,1.3,0.3,1.9c0.2,0.6,0.5,1.1,1,1.4c0.2,0.2,0.5,0.3,0.8,0.4
		c0.3,0.1,0.6,0.1,0.9,0.1c0.7,0,1.3-0.2,1.8-0.6c0.5-0.4,0.8-1,1.1-1.7s0.4-1.5,0.4-2.3c0-0.3,0-0.7-0.1-1
		c-0.1-0.3-0.1-0.6-0.2-0.9c-0.2-0.6-0.5-1.1-1-1.5c-0.5-0.4-1-0.6-1.7-0.6c-0.5,0-0.9,0.1-1.3,0.3c-0.4,0.2-0.7,0.5-1,0.9
		s-0.5,0.9-0.6,1.5C86.5,49.3,86.4,50,86.4,50.8z"/>
	<path class="st0" d="M95.7,45.5c0.2,0,0.4,0,0.6,0c0.2,0,0.4,0,0.6,0c0.2,0,0.4,0,0.6,0c0.2,0,0.4,0,0.6,0c0.1,0.3,0.2,0.6,0.3,1.1
		c0.1,0.4,0.2,0.8,0.3,1.2l0.7,2.5l0.7,2.4l0.6-1.8l0.7-1.9c0.1-0.2,0.2-0.6,0.4-1.2c0.1-0.2,0.2-0.5,0.2-0.7l0.5-1.7
		c0.2,0,0.5,0,0.7,0c0.2,0,0.5,0,0.7,0c0.2,0.6,0.2,0.9,0.3,1c0,0,0.1,0.2,0.2,0.6L105,49l0.7,2l0.5,1.6l0.9-2.7
		c0.2-0.6,0.4-1.3,0.6-2.1c0.1-0.4,0.2-0.8,0.3-1.2c0.1-0.3,0.2-0.7,0.3-1.2c0.2,0,0.4,0,0.7,0s0.4,0,0.7,0
		c-1.3,3.6-2.4,6.9-3.4,9.9l-0.7-0.1c-0.1,0-0.3,0-0.7,0.1c-0.2-0.6-0.3-1.2-0.5-1.8c-0.1-0.3-0.2-0.5-0.2-0.7
		c-0.1-0.3-0.2-0.6-0.3-0.9l-0.6-1.7l-0.7-1.9l-0.9,2.4l-1,2.7l-0.6,1.9l-0.7-0.1c-0.1,0-0.3,0-0.7,0.1c-0.1-0.3-0.2-0.7-0.3-1.1
		s-0.2-0.8-0.3-1.2l-0.7-2.3c-0.3-0.9-0.5-1.6-0.7-2.2l-0.8-2.6L95.7,45.5z"/>
	<path class="st0" d="M116.5,45.5l-0.1,0.6c0,0.1,0,0.3,0.1,0.6c-1-0.1-2.1-0.2-3.3-0.2v3.1h1.5c0.6,0,1.2,0,1.8-0.1
		c0,0.3-0.1,0.5-0.1,0.6c0,0.1,0,0.3,0.1,0.6c-0.3,0-0.6-0.1-0.9-0.1c-0.3,0-0.6,0-0.9,0h-1.5v3.7c0.7,0,1.3,0,1.8,0
		c0.5,0,1-0.1,1.6-0.2l-0.1,0.6c0,0.1,0,0.3,0.1,0.6H111v-9.8H116.5z"/>
	<path class="st0" d="M118.1,45.5h3.1c1.1,0,1.9,0.1,2.3,0.3c0.8,0.4,1.2,1.1,1.2,2.1c0,0.7-0.2,1.3-0.6,1.7
		c-0.4,0.4-0.9,0.7-1.6,0.9l0.7,1.2l1,1.5l0.9,1.3l0.6,0.9l-1.3-0.1c-0.2,0-0.4,0-0.7,0c-0.3,0-0.5,0-0.6,0l-1.7-3l-0.5-0.8
		l-0.5-0.8h-0.1v4.6l-1.1-0.1c-0.2,0-0.3,0-0.5,0c-0.2,0-0.4,0-0.5,0V45.5z M120.3,50.1l0.4,0c1.3,0,1.9-0.7,1.9-2.1
		c0-0.1,0-0.2,0-0.3c0-0.1,0-0.3-0.1-0.4c-0.1-0.4-0.3-0.7-0.6-0.9s-0.7-0.2-1.2-0.2h-0.4V50.1z"/>
	<path class="st0" d="M131.4,47.3c-0.3-0.8-0.9-1.2-1.7-1.2c-1.1,0-1.6,0.5-1.6,1.4c0,0.4,0.1,0.7,0.4,0.9c0.3,0.2,0.8,0.5,1.6,0.9
		c0.8,0.4,1.4,0.8,1.8,1.3c0.4,0.4,0.6,1,0.6,1.8c0,0.6-0.2,1.1-0.5,1.6c-0.3,0.5-0.8,0.9-1.4,1.1c-0.6,0.3-1.2,0.4-2,0.4
		c-0.9,0-1.7-0.2-2.3-0.6c0.2-0.7,0.4-1.3,0.4-1.8h0.3c0.1,0.5,0.3,0.9,0.7,1.2c0.4,0.3,0.8,0.4,1.3,0.4c0.5,0,0.9-0.1,1.2-0.4
		c0.3-0.3,0.5-0.6,0.5-1.1c0-0.5-0.2-0.9-0.5-1.1c-0.3-0.2-0.8-0.5-1.6-0.9s-1.3-0.7-1.7-1.2c-0.4-0.4-0.6-1-0.6-1.8
		c0-0.4,0.1-0.8,0.2-1.2s0.4-0.7,0.6-1c0.3-0.3,0.6-0.5,1.1-0.6c0.4-0.2,0.9-0.2,1.4-0.2c0.5,0,0.9,0.1,1.4,0.2
		c0.4,0.1,0.7,0.3,0.9,0.5c0,0.1-0.1,0.2-0.1,0.4c-0.1,0.4-0.2,0.7-0.3,1H131.4z"/>
</g>
</svg>
